# xmcd
#
# Track frame offsets: 
#        150
#        19087
#        33840
#        45865
#        70092
#        88407
#        106890
#        125855
#        136552
#        149547
#
# Disc length: 2293 seconds
#
# Revision: 4
# Processed by: cddbd v1.5.1PL0 Copyright (c) Steve Scherf et al.
# Submitted via: ExactAudioCopy v0.95a3
#
DISCID=8308f30a
DTITLE=Garth Brooks - Fresh Horses
DYEAR=1995
DGENRE=Country
TTITLE0=The Old Stuff
TTITLE1=Cowboys And Angels
TTITLE2=The Fever
TTITLE3=That Ol' Wind
TTITLE4=Rolling'
TTITLE5=The Change
TTITLE6=The Beaches Of Cheyenne
TTITLE7=It's Midnight Cinderella
TTITLE8=She's Every Woman
TTITLE9=Ireland
EXTD=0\n\n\n
EXTT0=
EXTT1=
EXTT2=
EXTT3=
EXTT4=
EXTT5=
EXTT6=
EXTT7=
EXTT8=
EXTT9=
PLAYORDER=
